<svg xmlns="http://www.w3.org/2000/svg" viewBox="0 0 200 200">
    <!-- Background Circle -->
    <circle cx="100" cy="100" r="90" fill="#0a1657"/>

    <!-- Wave Pattern Representing Emotional Flow -->
    <path d="M30 100
             C45 70, 75 130, 100 100
             C125 70, 155 130, 170 100"
          fill="none"
          stroke="#4A90E2"
          stroke-width="6"
          opacity="0.7"/>

    <!-- Profile Silhouette -->
    <path d="M85 60
             C85 50, 115 50, 115 60
             L115 90
             C115 100, 85 100, 85 90 Z"
          fill="white"/>

    <!-- Circular Elements Representing Balance -->
    <circle cx="70" cy="130" r="15" fill="#4A90E2" opacity="0.8"/>
    <circle cx="130" cy="130" r="15" fill="#4A90E2" opacity="0.8"/>

    <!-- Connection Lines -->
    <path d="M70 130 Q100 110 130 130"
          fill="none"
          stroke="white"
          stroke-width="2"
          opacity="0.6"/>

    <!-- Decorative Elements -->
    <circle cx="100" cy="70" r="3" fill="white"/>

    <!-- Balance Lines -->
    <line x1="40" y1="160" x2="160" y2="160"
          stroke="white"
          stroke-width="2"
          opacity="0.5"/>

    <!-- Subtle Rhythm Lines -->
    <g opacity="0.3">
        <line x1="50" y1="150" x2="60" y2="150" stroke="white" stroke-width="2"/>
        <line x1="80" y1="150" x2="90" y2="150" stroke="white" stroke-width="2"/>
        <line x1="110" y1="150" x2="120" y2="150" stroke="white" stroke-width="2"/>
        <line x1="140" y1="150" x2="150" y2="150" stroke="white" stroke-width="2"/>
    </g>

    <!-- Energy Flow Elements -->
    <path d="M60 120 C80 110 120 110 140 120"
          fill="none"
          stroke="white"
          stroke-width="2"
          opacity="0.4"/>

    <path d="M70 140 C90 130 110 130 130 140"
          fill="none"
          stroke="white"
          stroke-width="2"
          opacity="0.4"/>

    <!-- Dynamic Elements -->
    <g transform="translate(100,100)">
        <circle cx="0" cy="0" r="25"
                fill="none"
                stroke="#4A90E2"
                stroke-width="2"
                opacity="0.3"/>
        <circle cx="0" cy="0" r="35"
                fill="none"
                stroke="#4A90E2"
                stroke-width="1"
                opacity="0.2"/>
    </g>
</svg>