<svg xmlns="http://www.w3.org/2000/svg" viewBox="0 0 200 200">
    <!-- Background Circle -->
    <circle cx="100" cy="100" r="90" fill="#0a1657"/>

    <!-- Lotus Petals Behind -->
    <path d="M100 40 C60 40 40 90 40 130 C40 150 60 160 100 160 C140 160 160 150 160 130 C160 90 140 40 100 40"
          fill="#4A90E2"
          opacity="0.7"/>

    <!-- Profile Silhouette -->
    <path d="M85 70 C85 60 115 60 115 70 L115 100 C115 110 85 110 85 100 Z"
          fill="white"/>
    <path d="M100 110 C70 110 70 140 70 150 C70 160 130 160 130 150 C130 140 130 110 100 110"
          fill="white"/>

    <!-- Eye -->
    <circle cx="100" cy="80" r="3" fill="#0a1657"/>

    <!-- Lotus Lines -->
    <path d="M40 130 C60 140 140 140 160 130"
          fill="none"
          stroke="white"
          stroke-width="2"
          opacity="0.5"/>

    <path d="M50 110 C70 120 130 120 150 110"
          fill="none"
          stroke="white"
          stroke-width="2"
          opacity="0.5"/>

    <path d="M60 90 C80 100 120 100 140 90"
          fill="none"
          stroke="white"
          stroke-width="2"
          opacity="0.5"/>

    <!-- Meditation Base Lines -->
    <path d="M30 160 C60 150 140 150 170 160"
          fill="none"
          stroke="white"
          stroke-width="2"/>

    <path d="M40 170 C70 160 130 160 160 170"
          fill="none"
          stroke="white"
          stroke-width="2"/>
</svg>